# xmcd
#
# Track frame offsets:
#	150
#	15375
#	24395
#	47237
#	56235
#	65447
#	74400
#	84742
#	96902
#	106785
#	117685
#	127277
#
# Disc length: 1911 seconds
#
# Revision: 0
# Processed by: cddbd v1.4PL0 Copyright (c) Steve Scherf et al.
# Submitted via: dBpowerAMP V4.0
#
DISCID=ae07750c
DTITLE=Kingsmen - All Their Best Vol. 1
DYEAR=1999
DGENRE=Gospel
TTITLE0=I Can't Even Walk
TTITLE1=The Next Time You See Me
TTITLE2=The Apple Tree Song
TTITLE3=Give Me A Song To Sing At Midnight
TTITLE4=Guide My Feet
TTITLE5=There'll Be A Lot Of Singing
TTITLE6=When I Wake Up To Sleep No More
TTITLE7=Over In The Gloryland
TTITLE8=All In The Twinkling
TTITLE9=Jesus Is Mine
TTITLE10=If You Don't Like Shouting
TTITLE11=Jesus Never Fails
EXTD=Southern Gospel
EXTT0=
EXTT1=
EXTT2=
EXTT3=
EXTT4=
EXTT5=
EXTT6=
EXTT7=
EXTT8=
EXTT9=
EXTT10=
EXTT11=
PLAYORDER=
